<svg xmlns="http://www.w3.org/2000/svg" xmlns:xlink="http://www.w3.org/1999/xlink" viewBox="0 0 906.03 905.33"><defs><style>.cls-1{fill:#2557a6;}.cls-2,.cls-3,.cls-4{fill-rule:evenodd;}.cls-2{fill:url(#未命名的渐变_27);}.cls-3{fill:url(#未命名的渐变_42);}.cls-4{fill:url(#未命名的渐变_193);}</style><linearGradient id="未命名的渐变_27" x1="492.74" y1="102.48" x2="595.04" y2="144.71" gradientUnits="userSpaceOnUse"><stop offset="0" stop-color="#1a6bb4"/><stop offset="1" stop-color="#1884bc"/></linearGradient><linearGradient id="未命名的渐变_42" x1="123.74" y1="745.53" x2="927.01" y2="367.78" gradientUnits="userSpaceOnUse"><stop offset="0" stop-color="#008daa"/><stop offset="1" stop-color="#1d74bb"/></linearGradient><linearGradient id="未命名的渐变_193" x1="249.39" y1="547.89" x2="751.34" y2="547.89" gradientUnits="userSpaceOnUse"><stop offset="0" stop-color="#1486bd"/><stop offset="0.45" stop-color="#0693b0"/></linearGradient></defs><title>kjlogo</title><g id="图层_2" data-name="图层 2"><path class="cls-1" d="M539.23,64.22c26.29,0,50.3,28.87,58.08,49.72,14.8,39.7-22.13,62.79-57.18,62.79-28.14,0-55.06-14.89-53-48,1.4-22.39,21-60.47,47.33-64.18l.66-.08a35.36,35.36,0,0,1,4.1-.24m0-5v0h0a40.41,40.41,0,0,0-4.68.27l-.78.1c-13.23,1.87-26.19,11.56-36.49,27.3-8.55,13-14.35,29-15.13,41.52-.89,14.27,3.24,26.71,11.94,36,10.35,11,27.13,17.34,46,17.34a84.2,84.2,0,0,0,32.78-6.55c10.77-4.6,19.46-11.34,25.11-19.47,8.59-12.39,10-27.43,4-43.52-4.44-11.89-13.16-24.81-23.32-34.54-15.91-15.23-30.23-18.43-39.44-18.43Z" transform="translate(-58.33 -59.22)"/><path class="cls-1" d="M704,143.34c28.82,0,56.5,16.27,79.51,33.94,129,99.09,197.17,265.85,169.86,421.31s-150.14,292.92-308,341.5a448,448,0,0,1-131.82,19.47c-145.4,0-290.74-67.18-374.18-182-46.8-64.39-73.93-141.76-75.95-220.06-2.64-101.7,37.13-203.85,108.78-279.46-42.53,115-71.06,242.43-29,357.57,26.23,71.69,78.76,133.36,143,178.4,63.45,44.45,139.76,73.72,218.53,77,4.73.19,9.48.29,14.2.29,121.4,0,240.22-64.3,305.15-162,67.45-101.53,76.27-234.81,27.4-345.53-25.79-58.42-69.08-112.63-129.91-138.58-26.39-11.25-71.88-23.58-72.38-58.86-.29-20.92,20.17-38.07,41.82-41.89.84-.15,1.67-.28,2.51-.4a73.66,73.66,0,0,1,10.34-.72m0-5v0a79.11,79.11,0,0,0-11,.77c-.9.12-1.81.27-2.69.42a63.2,63.2,0,0,0-31.71,15.84c-9.34,8.85-14.39,19.88-14.24,31,.48,33.81,37.08,48.2,63.81,58.71,4.15,1.63,8.06,3.17,11.6,4.68,28.15,12,53.83,30.8,76.35,55.86,20.32,22.62,37.47,49.59,51,80.14a363.84,363.84,0,0,1,29.5,173.81c-4.57,60.45-24.11,118.18-56.5,166.93-31.54,47.49-76.35,87.61-129.58,116-53.65,28.64-112.92,43.78-171.4,43.78-4.65,0-9.36-.1-14-.29a381.73,381.73,0,0,1-113.51-22.77A436.93,436.93,0,0,1,289.21,810a419.16,419.16,0,0,1-84.79-78.27c-24.9-30.55-43.88-63.44-56.43-97.75a337.76,337.76,0,0,1-18.94-87A442.18,442.18,0,0,1,131,457.4c6.26-52.84,21.29-110.93,45.94-177.58l8.46-22.88-16.78,17.7c-72.67,76.69-112.82,179.85-110.15,283A386.94,386.94,0,0,0,79.92,674.42a407,407,0,0,0,55.45,106.12c41,56.35,98.27,103.24,165.73,135.59a494.48,494.48,0,0,0,212.49,48.43A444.51,444.51,0,0,0,759,892.29a467.16,467.16,0,0,0,93-79.52A454.3,454.3,0,0,0,920.39,713a412.14,412.14,0,0,0,37.9-113.49c13.53-77,4.34-158.12-26.59-234.54A463,463,0,0,0,872.31,260a452.89,452.89,0,0,0-85.76-86.73c-30.63-23.53-57.64-35-82.55-35Z" transform="translate(-58.33 -59.22)"/><path class="cls-1" d="M459.74,353.06a37.2,37.2,0,0,1,5.6.4c16.5,2.48,23.24,16.94,15.05,36.24-9.65,22.77-17.56,47-15.69,71.44,1.18,15.53,9.53,21.31,19.79,21.31,9.05,0,19.58-4.49,28-10.75,44.36-32.9,83.27-72.49,130.45-101.63,8.21-5.07,19.19-10.7,29.17-11.07l1.3,0c16.66,0,12.14,12.95,4.29,22.29-15.21,18.09-39.76,25.11-60.14,36.32-37.75,20.75-87.38,54.24-99.75,96.43-5.5,18.79-2,39.3,6.77,56.91C542.31,606.28,585,641,625.77,650.1a99.48,99.48,0,0,0,21.53,2.38c17.28,0,34.48-4.63,47.94-14.77,7.64-5.75,29.85-34.91,44.06-34.91,4.55,0,8.27,3,10.45,10.65,9.71,34.28-27,57.42-55.66,68.63-20.54,8-43.18,11.89-65.84,11.89a196.69,196.69,0,0,1-67-11.62c-43.9-16.05-80.74-49.28-98.87-90.52-4.47-10.16-10.57-14.33-16.6-14.33-9.46,0-18.73,10.28-21.17,23.84-7.31,40.48,3.87,84.07-12.88,121.93-3.52,8-13.21,19.45-22.66,19.45-3.52,0-7-1.6-10.12-5.56-11.3-14.4-6.65-36.06-4.81-52.54,8-71.29,36.26-139.46,39-211.43.9-23.34-5.17-53.81-33.23-60.19a44.3,44.3,0,0,0-9.85-1.12c-17.32,0-32.67,10.25-44,22.73-12.32,13.55-18.73,38.33-36.5,46.11a24.82,24.82,0,0,1-10,2.07c-12.83,0-25.2-9.56-28.69-21.46-9.55-32.61,26.45-53.92,52.61-64.65,26.61-10.91,54.19-19.51,82.08-26.93,14-3.71,28-7.12,42.09-10.38,10.06-2.33,21.28-6.31,32-6.31m0-5v0h0c-8.6,0-17.07,2.26-25.27,4.44-2.75.73-5.34,1.42-7.86,2-16.21,3.75-29.63,7.06-42.25,10.42-31.6,8.4-58.65,17.28-82.68,27.14-43.88,18-63.6,43.09-55.52,70.67,4.19,14.29,18.59,25.06,33.49,25.06a29.7,29.7,0,0,0,12-2.49c12.73-5.57,19.86-18,26.75-30,3.74-6.53,7.27-12.69,11.45-17.29,7.16-7.88,21.91-21.09,40.3-21.09a39.4,39.4,0,0,1,8.75,1c28.14,6.4,29.89,40.69,29.33,55.13-1.51,39.57-11.06,78.87-20.29,116.88-7.43,30.61-15.12,62.27-18.69,94.18-.23,2-.5,4.09-.78,6.3-2,15.87-4.57,35.64,6.62,49.88,4.85,6.18,10.32,7.48,14.05,7.48,11.94,0,23.11-13.11,27.23-22.42,10.51-23.76,10.47-49.64,10.44-74.67,0-16.09,0-32.72,2.79-48.4,2-10.88,9.25-19.73,16.25-19.73,4.53,0,8.8,4,12,11.34a169.62,169.62,0,0,0,41,56.39A185.43,185.43,0,0,0,559.56,687,202.07,202.07,0,0,0,628.25,699c23.79,0,47.19-4.23,67.66-12.23,12.77-5,30.76-13.69,43.93-26.77,14.43-14.35,19.53-30.91,14.72-47.88-3.35-11.81-10.14-14.29-15.26-14.29-11.43,0-24.11,12.34-38.3,27.25a104.69,104.69,0,0,1-8.77,8.67c-11.78,8.87-27.74,13.76-44.93,13.76a93.94,93.94,0,0,1-20.44-2.26c-38.16-8.5-80.2-41.41-97.78-76.54-9-17.91-11.26-36.83-6.45-53.26,5.25-17.91,18.32-36,38.84-53.89,15.33-13.34,35-26.65,58.51-39.57,5.65-3.1,11.55-5.84,17.79-8.74,15.82-7.35,32.18-15,43.78-28.75,3.46-4.11,11.08-14.61,7.12-23.11C687.1,358,683.18,354,673.43,354l-1.49,0c-8.94.33-19.28,4.2-31.6,11.81-29,17.88-55.12,39.91-80.43,61.21-16.26,13.68-33.07,27.82-50.38,40.66-8.12,6-17.72,9.77-25,9.77-9.11,0-13.95-5.46-14.81-16.69C467.8,436.13,476.37,412,485,391.65c4.93-11.63,5.15-22.5.61-30.6-3.79-6.76-10.72-11.21-19.52-12.53a41.94,41.94,0,0,0-6.34-.46Z" transform="translate(-58.33 -59.22)"/><path class="cls-2" d="M535.13,64.46c27.86-3.25,54,27.55,62.18,49.48,26.7,71.58-114.82,89.15-110.17,14.78,1.4-22.39,21-60.47,47.33-64.18Z" transform="translate(-58.33 -59.22)"/><path class="cls-3" d="M693.66,144.06c32.5-4.57,64.11,13.45,89.85,33.22,129,99.09,197.17,265.85,169.86,421.31s-150.14,292.92-308,341.5c-182.39,56.15-397-12.56-506-162.49-46.8-64.39-73.93-141.76-75.95-220.06-2.64-101.7,37.13-203.85,108.78-279.46-42.53,115-71.06,242.43-29,357.57,26.22,71.69,78.76,133.36,143,178.4,63.45,44.45,139.76,73.72,218.53,77,126.25,5.25,251.9-60.21,319.35-161.74s76.27-234.81,27.4-345.53c-25.79-58.42-69.08-112.63-129.91-138.58-26.39-11.25-71.88-23.58-72.38-58.86-.29-20.92,20.17-38.07,41.82-41.89C692,144.31,692.82,144.18,693.66,144.06Z" transform="translate(-58.33 -59.22)"/><path class="cls-4" d="M465.34,353.46c16.5,2.48,23.24,16.94,15.05,36.24-9.65,22.77-17.56,47-15.69,71.44,2.23,29.23,29.81,23.91,47.81,10.56,44.36-32.9,83.27-72.49,130.45-101.63,8.21-5.07,19.19-10.7,29.17-11.07,18.19-.68,13.64,12.68,5.59,22.26-15.21,18.09-39.76,25.11-60.14,36.32-37.75,20.75-87.38,54.24-99.75,96.43-5.5,18.79-2,39.3,6.77,56.91C542.31,606.28,585,641,625.77,650.1c23.74,5.29,50.36,2,69.47-12.39,10.08-7.59,45.53-55.94,54.51-24.26,9.71,34.28-27,57.42-55.66,68.63-41.39,16.18-91.31,15.44-132.81.27-43.9-16.05-80.74-49.28-98.87-90.52-11.48-26.1-33.77-12.69-37.77,9.51-7.31,40.48,3.87,84.07-12.88,121.93-4.82,10.91-21.29,28.51-32.78,13.89-11.3-14.4-6.65-36.06-4.81-52.54,8-71.29,36.26-139.46,39-211.43.9-23.34-5.17-53.81-33.23-60.19-21.33-4.85-40.41,6.82-53.85,21.61-12.32,13.55-18.73,38.33-36.5,46.11-15.75,6.89-34.25-4.4-38.65-19.39-9.55-32.61,26.45-53.92,52.61-64.65,26.61-10.91,54.19-19.51,82.08-26.93,14-3.71,28-7.12,42.09-10.38C439.56,356.63,453,351.61,465.34,353.46Z" transform="translate(-58.33 -59.22)"/></g><g id="图层_3" data-name="图层 3"><path class="cls-1" d="M539.23,64.22c26.29,0,50.3,28.87,58.08,49.72,14.8,39.7-22.13,62.79-57.18,62.79-28.14,0-55.06-14.89-53-48,1.4-22.39,21-60.47,47.33-64.18l.66-.08a35.36,35.36,0,0,1,4.1-.24m0-5v0h0a40.41,40.41,0,0,0-4.68.27l-.78.1c-13.23,1.87-26.19,11.56-36.49,27.3-8.55,13-14.35,29-15.13,41.52-.89,14.27,3.24,26.71,11.94,36,10.35,11,27.13,17.34,46,17.34a84.2,84.2,0,0,0,32.78-6.55c10.77-4.6,19.46-11.34,25.11-19.47,8.59-12.39,10-27.43,4-43.52-4.44-11.89-13.16-24.81-23.32-34.54-15.91-15.23-30.23-18.43-39.44-18.43Z" transform="translate(-58.33 -59.22)"/><path class="cls-1" d="M704,143.34c28.82,0,56.5,16.27,79.51,33.94,129,99.09,197.17,265.85,169.86,421.31s-150.14,292.92-308,341.5a448,448,0,0,1-131.82,19.47c-145.4,0-290.74-67.18-374.18-182-46.8-64.39-73.93-141.76-75.95-220.06-2.64-101.7,37.13-203.85,108.78-279.46-42.53,115-71.06,242.43-29,357.57,26.23,71.69,78.76,133.36,143,178.4,63.45,44.45,139.76,73.72,218.53,77,4.73.19,9.48.29,14.2.29,121.4,0,240.22-64.3,305.15-162,67.45-101.53,76.27-234.81,27.4-345.53-25.79-58.42-69.08-112.63-129.91-138.58-26.39-11.25-71.88-23.58-72.38-58.86-.29-20.92,20.17-38.07,41.82-41.89.84-.15,1.67-.28,2.51-.4a73.66,73.66,0,0,1,10.34-.72m0-5v0a79.11,79.11,0,0,0-11,.77c-.9.12-1.81.27-2.69.42a63.2,63.2,0,0,0-31.71,15.84c-9.34,8.85-14.39,19.88-14.24,31,.48,33.81,37.08,48.2,63.81,58.71,4.15,1.63,8.06,3.17,11.6,4.68,28.15,12,53.83,30.8,76.35,55.86,20.32,22.62,37.47,49.59,51,80.14a363.84,363.84,0,0,1,29.5,173.81c-4.57,60.45-24.11,118.18-56.5,166.93-31.54,47.49-76.35,87.61-129.58,116-53.65,28.64-112.92,43.78-171.4,43.78-4.65,0-9.36-.1-14-.29a381.73,381.73,0,0,1-113.51-22.77A436.93,436.93,0,0,1,289.21,810a419.16,419.16,0,0,1-84.79-78.27c-24.9-30.55-43.88-63.44-56.43-97.75a337.76,337.76,0,0,1-18.94-87A442.18,442.18,0,0,1,131,457.4c6.26-52.84,21.29-110.93,45.94-177.58l8.46-22.88-16.78,17.7c-72.67,76.69-112.82,179.85-110.15,283A386.94,386.94,0,0,0,79.92,674.42a407,407,0,0,0,55.45,106.12c41,56.35,98.27,103.24,165.73,135.59a494.48,494.48,0,0,0,212.49,48.43A444.51,444.51,0,0,0,759,892.29a467.16,467.16,0,0,0,93-79.52A454.3,454.3,0,0,0,920.39,713a412.14,412.14,0,0,0,37.9-113.49c13.53-77,4.34-158.12-26.59-234.54A463,463,0,0,0,872.31,260a452.89,452.89,0,0,0-85.76-86.73c-30.63-23.53-57.64-35-82.55-35Z" transform="translate(-58.33 -59.22)"/><path class="cls-1" d="M459.74,353.06a37.2,37.2,0,0,1,5.6.4c16.5,2.48,23.24,16.94,15.05,36.24-9.65,22.77-17.56,47-15.69,71.44,1.18,15.53,9.53,21.31,19.79,21.31,9.05,0,19.58-4.49,28-10.75,44.36-32.9,83.27-72.49,130.45-101.63,8.21-5.07,19.19-10.7,29.17-11.07l1.3,0c16.66,0,12.14,12.95,4.29,22.29-15.21,18.09-39.76,25.11-60.14,36.32-37.75,20.75-87.38,54.24-99.75,96.43-5.5,18.79-2,39.3,6.77,56.91C542.31,606.28,585,641,625.77,650.1a99.48,99.48,0,0,0,21.53,2.38c17.28,0,34.48-4.63,47.94-14.77,7.64-5.75,29.85-34.91,44.06-34.91,4.55,0,8.27,3,10.45,10.65,9.71,34.28-27,57.42-55.66,68.63-20.54,8-43.18,11.89-65.84,11.89a196.69,196.69,0,0,1-67-11.62c-43.9-16.05-80.74-49.28-98.87-90.52-4.47-10.16-10.57-14.33-16.6-14.33-9.46,0-18.73,10.28-21.17,23.84-7.31,40.48,3.87,84.07-12.88,121.93-3.52,8-13.21,19.45-22.66,19.45-3.52,0-7-1.6-10.12-5.56-11.3-14.4-6.65-36.06-4.81-52.54,8-71.29,36.26-139.46,39-211.43.9-23.34-5.17-53.81-33.23-60.19a44.3,44.3,0,0,0-9.85-1.12c-17.32,0-32.67,10.25-44,22.73-12.32,13.55-18.73,38.33-36.5,46.11a24.82,24.82,0,0,1-10,2.07c-12.83,0-25.2-9.56-28.69-21.46-9.55-32.61,26.45-53.92,52.61-64.65,26.61-10.91,54.19-19.51,82.08-26.93,14-3.71,28-7.12,42.09-10.38,10.06-2.33,21.28-6.31,32-6.31m0-5v0h0c-8.6,0-17.07,2.26-25.27,4.44-2.75.73-5.34,1.42-7.86,2-16.21,3.75-29.63,7.06-42.25,10.42-31.6,8.4-58.65,17.28-82.68,27.14-43.88,18-63.6,43.09-55.52,70.67,4.19,14.29,18.59,25.06,33.49,25.06a29.7,29.7,0,0,0,12-2.49c12.73-5.57,19.86-18,26.75-30,3.74-6.53,7.27-12.69,11.45-17.29,7.16-7.88,21.91-21.09,40.3-21.09a39.4,39.4,0,0,1,8.75,1c28.14,6.4,29.89,40.69,29.33,55.13-1.51,39.57-11.06,78.87-20.29,116.88-7.43,30.61-15.12,62.27-18.69,94.18-.23,2-.5,4.09-.78,6.3-2,15.87-4.57,35.64,6.62,49.88,4.85,6.18,10.32,7.48,14.05,7.48,11.94,0,23.11-13.11,27.23-22.42,10.51-23.76,10.47-49.64,10.44-74.67,0-16.09,0-32.72,2.79-48.4,2-10.88,9.25-19.73,16.25-19.73,4.53,0,8.8,4,12,11.34a169.62,169.62,0,0,0,41,56.39A185.43,185.43,0,0,0,559.56,687,202.07,202.07,0,0,0,628.25,699c23.79,0,47.19-4.23,67.66-12.23,12.77-5,30.76-13.69,43.93-26.77,14.43-14.35,19.53-30.91,14.72-47.88-3.35-11.81-10.14-14.29-15.26-14.29-11.43,0-24.11,12.34-38.3,27.25a104.69,104.69,0,0,1-8.77,8.67c-11.78,8.87-27.74,13.76-44.93,13.76a93.94,93.94,0,0,1-20.44-2.26c-38.16-8.5-80.2-41.41-97.78-76.54-9-17.91-11.26-36.83-6.45-53.26,5.25-17.91,18.32-36,38.84-53.89,15.33-13.34,35-26.65,58.51-39.57,5.65-3.1,11.55-5.84,17.79-8.74,15.82-7.35,32.18-15,43.78-28.75,3.46-4.11,11.08-14.61,7.12-23.11C687.1,358,683.18,354,673.43,354l-1.49,0c-8.94.33-19.28,4.2-31.6,11.81-29,17.88-55.12,39.91-80.43,61.21-16.26,13.68-33.07,27.82-50.38,40.66-8.12,6-17.72,9.77-25,9.77-9.11,0-13.95-5.46-14.81-16.69C467.8,436.13,476.37,412,485,391.65c4.93-11.63,5.15-22.5.61-30.6-3.79-6.76-10.72-11.21-19.52-12.53a41.94,41.94,0,0,0-6.34-.46Z" transform="translate(-58.33 -59.22)"/><path class="cls-2" d="M535.13,64.46c27.86-3.25,54,27.55,62.18,49.48,26.7,71.58-114.82,89.15-110.17,14.78,1.4-22.39,21-60.47,47.33-64.18Z" transform="translate(-58.33 -59.22)"/><path class="cls-3" d="M693.66,144.06c32.5-4.57,64.11,13.45,89.85,33.22,129,99.09,197.17,265.85,169.86,421.31s-150.14,292.92-308,341.5c-182.39,56.15-397-12.56-506-162.49-46.8-64.39-73.93-141.76-75.95-220.06-2.64-101.7,37.13-203.85,108.78-279.46-42.53,115-71.06,242.43-29,357.57,26.22,71.69,78.76,133.36,143,178.4,63.45,44.45,139.76,73.72,218.53,77,126.25,5.25,251.9-60.21,319.35-161.74s76.27-234.81,27.4-345.53c-25.79-58.42-69.08-112.63-129.91-138.58-26.39-11.25-71.88-23.58-72.38-58.86-.29-20.92,20.17-38.07,41.82-41.89C692,144.31,692.82,144.18,693.66,144.06Z" transform="translate(-58.33 -59.22)"/><path class="cls-4" d="M465.34,353.46c16.5,2.48,23.24,16.94,15.05,36.24-9.65,22.77-17.56,47-15.69,71.44,2.23,29.23,29.81,23.91,47.81,10.56,44.36-32.9,83.27-72.49,130.45-101.63,8.21-5.07,19.19-10.7,29.17-11.07,18.19-.68,13.64,12.68,5.59,22.26-15.21,18.09-39.76,25.11-60.14,36.32-37.75,20.75-87.38,54.24-99.75,96.43-5.5,18.79-2,39.3,6.77,56.91C542.31,606.28,585,641,625.77,650.1c23.74,5.29,50.36,2,69.47-12.39,10.08-7.59,45.53-55.94,54.51-24.26,9.71,34.28-27,57.42-55.66,68.63-41.39,16.18-91.31,15.44-132.81.27-43.9-16.05-80.74-49.28-98.87-90.52-11.48-26.1-33.77-12.69-37.77,9.51-7.31,40.48,3.87,84.07-12.88,121.93-4.82,10.91-21.29,28.51-32.78,13.89-11.3-14.4-6.65-36.06-4.81-52.54,8-71.29,36.26-139.46,39-211.43.9-23.34-5.17-53.81-33.23-60.19-21.33-4.85-40.41,6.82-53.85,21.61-12.32,13.55-18.73,38.33-36.5,46.11-15.75,6.89-34.25-4.4-38.65-19.39-9.55-32.61,26.45-53.92,52.61-64.65,26.61-10.91,54.19-19.51,82.08-26.93,14-3.71,28-7.12,42.09-10.38C439.56,356.63,453,351.61,465.34,353.46Z" transform="translate(-58.33 -59.22)"/></g></svg>